<svg xmlns="http://www.w3.org/2000/svg" xmlns:xlink="http://www.w3.org/1999/xlink" width="2884pt" height="607pt" viewBox="0.00 0.00 2884.17 607.00">
<g id="graph0" class="graph" transform="scale(1 1) rotate(0) translate(4 603)">
<title>TAVI_Project</title>
<polygon fill="white" stroke="none" points="-4,4 -4,-603 2880.17,-603 2880.17,4 -4,4"/>
<g id="clust1" class="cluster">
<title>cluster_0</title>
<polygon fill="lightgrey" stroke="lightgrey" points="8,-169 8,-591 689.13,-591 689.13,-169 8,-169"/>
<text text-anchor="middle" x="348.56" y="-574.4" font-family="Times,serif" font-size="14.00">TAVI Project Structure</text>
</g>
<g id="clust2" class="cluster">
<title>cluster_frontend</title>
<polygon fill="none" stroke="lightgrey" stroke-dasharray="5,2" points="16,-349 16,-508 367.88,-508 367.88,-349 16,-349"/>
<text text-anchor="middle" x="191.94" y="-491.4" font-family="Times,serif" font-size="14.00">frontend/</text>
<text text-anchor="middle" x="191.94" y="-474.6" font-family="Times,serif" font-size="14.00">(Kivy App)</text>
</g>
<g id="clust3" class="cluster">
<title>cluster_1</title>
<polygon fill="lightblue" stroke="lightblue" points="217.11,-38 217.11,-161 2868.17,-161 2868.17,-38 217.11,-38"/>
<text text-anchor="middle" x="1542.64" y="-144.4" font-family="Times,serif" font-size="14.00">Multimodal Interaction Flow</text>
</g>
<!-- venv -->
<g id="node1" class="node">
<title>venv</title>
<polygon fill="white" stroke="black" points="176.85,-278.8 35.27,-278.8 35.27,-237.2 176.85,-237.2 176.85,-278.8"/>
<text text-anchor="middle" x="106.06" y="-262.2" font-family="Times,serif" font-size="14.00">venv/</text>
<text text-anchor="middle" x="106.06" y="-245.4" font-family="Times,serif" font-size="14.00">(Virtual Environment)</text>
</g>
<!-- app -->
<g id="node2" class="node">
<title>app</title>
<polygon fill="white" stroke="black" points="166.74,-218.8 45.38,-218.8 45.38,-177.2 166.74,-177.2 166.74,-218.8"/>
<text text-anchor="middle" x="106.06" y="-202.2" font-family="Times,serif" font-size="14.00">app.py</text>
<text text-anchor="middle" x="106.06" y="-185.4" font-family="Times,serif" font-size="14.00">(FastAPI backend)</text>
</g>
<!-- send_audio -->
<g id="node11" class="node">
<title>send_audio</title>
<polygon fill="lightyellow" stroke="black" points="829,-92.8 718.13,-92.8 718.13,-51.2 829,-51.2 829,-92.8"/>
<text text-anchor="middle" x="773.56" y="-76.2" font-family="Times,serif" font-size="14.00">Send to Backend</text>
<text text-anchor="middle" x="773.56" y="-59.4" font-family="Times,serif" font-size="14.00">/ process_audio/</text>
</g>
<!-- app&#45;&gt;send_audio -->
<g id="edge1" class="edge">
<title>app-&gt;send_audio</title>
<path fill="none" stroke="black" stroke-dasharray="1,5" d="M119.08,-176.76C136.53,-148.26 171.8,-98.75 217.11,-77 378.76,0.57 598.58,-31.89 706.82,-55.48"/>
<polygon fill="black" stroke="black" points="705.89,-58.86 716.41,-57.62 707.41,-52.03 705.89,-58.86"/>
<text text-anchor="middle" x="452.9" y="-36.46" font-family="Times,serif" font-size="14.00">exposes /process_audio/</text>
</g>
<!-- proc -->
<g id="node3" class="node">
<title>proc</title>
<polygon fill="white" stroke="black" points="185.98,-338.8 26.13,-338.8 26.13,-297.2 185.98,-297.2 185.98,-338.8"/>
<text text-anchor="middle" x="106.06" y="-322.2" font-family="Times,serif" font-size="14.00">processing.py</text>
<text text-anchor="middle" x="106.06" y="-305.4" font-family="Times,serif" font-size="14.00">(Video Processing Logic)</text>
</g>
<!-- frame_extract -->
<g id="node18" class="node">
<title>frame_extract</title>
<polygon fill="lightyellow" stroke="black" points="1924.75,-127.8 1811.17,-127.8 1811.17,-86.2 1924.75,-86.2 1924.75,-127.8"/>
<text text-anchor="middle" x="1867.96" y="-111.2" font-family="Times,serif" font-size="14.00">Frame Extraction</text>
<text text-anchor="middle" x="1867.96" y="-94.4" font-family="Times,serif" font-size="14.00">(OpenCV)</text>
</g>
<!-- proc&#45;&gt;frame_extract -->
<g id="edge2" class="edge">
<title>proc-&gt;frame_extract</title>
<path fill="none" stroke="black" d="M177.93,-296.9C181.63,-294.27 185.07,-291.32 188.11,-288 208.64,-265.57 184.81,-243.69 206.11,-222 234.98,-192.61 253.89,-196 295.08,-196 295.08,-196 295.08,-196 1726.15,-196 1771.82,-196 1814.72,-162.14 1840.9,-136.19"/>
<polygon fill="black" stroke="black" points="1843.26,-138.78 1847.73,-129.18 1838.24,-133.89 1843.26,-138.78"/>
</g>
<!-- caption -->
<g id="node19" class="node">
<title>caption</title>
<polygon fill="lightyellow" stroke="black" points="2085.47,-127.8 1961.75,-127.8 1961.75,-86.2 2085.47,-86.2 2085.47,-127.8"/>
<text text-anchor="middle" x="2023.61" y="-111.2" font-family="Times,serif" font-size="14.00">Image Captioning</text>
<text text-anchor="middle" x="2023.61" y="-94.4" font-family="Times,serif" font-size="14.00">(BLIP via HF API)</text>
</g>
<!-- proc&#45;&gt;caption -->
<g id="edge3" class="edge">
<title>proc-&gt;caption</title>
<path fill="none" stroke="black" d="M174.83,-296.88C179.53,-294.24 184.02,-291.29 188.11,-288 199.65,-278.73 194.17,-268.73 206.11,-260 239.17,-235.82 254.13,-236 295.08,-236 295.08,-236 295.08,-236 1868.96,-236 1929.87,-236 1979.26,-175.81 2004.44,-137.65"/>
<polygon fill="black" stroke="black" points="2007.36,-139.6 2009.79,-129.29 2001.46,-135.83 2007.36,-139.6"/>
</g>
<!-- ocr -->
<g id="node20" class="node">
<title>ocr</title>
<polygon fill="lightyellow" stroke="black" points="2220.52,-127.8 2122.47,-127.8 2122.47,-86.2 2220.52,-86.2 2220.52,-127.8"/>
<text text-anchor="middle" x="2171.49" y="-111.2" font-family="Times,serif" font-size="14.00">OCR</text>
<text text-anchor="middle" x="2171.49" y="-94.4" font-family="Times,serif" font-size="14.00">(Mistral OCR)</text>
</g>
<!-- proc&#45;&gt;ocr -->
<g id="edge4" class="edge">
<title>proc-&gt;ocr</title>
<path fill="none" stroke="black" d="M166.35,-296.77C202.96,-285.52 251.17,-274 295.08,-274 295.08,-274 295.08,-274 2024.61,-274 2095.68,-274 2140.11,-187.15 2159.37,-138.71"/>
<polygon fill="black" stroke="black" points="2162.56,-140.15 2162.87,-129.56 2156.02,-137.65 2162.56,-140.15"/>
</g>
<!-- summarization -->
<g id="node21" class="node">
<title>summarization</title>
<polygon fill="lightyellow" stroke="black" points="2406.89,-127.8 2257.52,-127.8 2257.52,-86.2 2406.89,-86.2 2406.89,-127.8"/>
<text text-anchor="middle" x="2332.2" y="-111.2" font-family="Times,serif" font-size="14.00">Context Summarization</text>
<text text-anchor="middle" x="2332.2" y="-94.4" font-family="Times,serif" font-size="14.00">(ChatGroq LLM)</text>
</g>
<!-- proc&#45;&gt;summarization -->
<g id="edge5" class="edge">
<title>proc-&gt;summarization</title>
<path fill="none" stroke="black" d="M186.18,-314.96C219.76,-313.91 259.33,-313 295.08,-313 295.08,-313 295.08,-313 2172.49,-313 2259.26,-313 2305.2,-196.9 2322.71,-139.02"/>
<polygon fill="black" stroke="black" points="2325.98,-140.3 2325.41,-129.72 2319.26,-138.35 2325.98,-140.3"/>
</g>
<!-- env -->
<g id="node4" class="node">
<title>env</title>
<polygon fill="white" stroke="black" points="681.13,-398.8 538.75,-398.8 538.75,-357.2 681.13,-357.2 681.13,-398.8"/>
<text text-anchor="middle" x="609.94" y="-382.2" font-family="Times,serif" font-size="14.00">.env</text>
<text text-anchor="middle" x="609.94" y="-365.4" font-family="Times,serif" font-size="14.00">(API Keys &amp; Configs)</text>
</g>
<!-- req -->
<g id="node5" class="node">
<title>req</title>
<polygon fill="white" stroke="black" points="159.74,-557.8 52.38,-557.8 52.38,-516.2 159.74,-516.2 159.74,-557.8"/>
<text text-anchor="middle" x="106.06" y="-541.2" font-family="Times,serif" font-size="14.00">requirements.txt</text>
<text text-anchor="middle" x="106.06" y="-524.4" font-family="Times,serif" font-size="14.00">(Dependencies)</text>
</g>
<!-- main_py -->
<g id="node6" class="node">
<title>main_py</title>
<polygon fill="white" stroke="black" points="188.11,-398.8 24,-398.8 24,-357.2 188.11,-357.2 188.11,-398.8"/>
<text text-anchor="middle" x="106.06" y="-382.2" font-family="Times,serif" font-size="14.00">main.py</text>
<text text-anchor="middle" x="106.06" y="-365.4" font-family="Times,serif" font-size="14.00">(App Logic &amp; Interaction)</text>
</g>
<!-- config_py -->
<g id="node7" class="node">
<title>config_py</title>
<polygon fill="white" stroke="black" points="359.88,-398.8 232.29,-398.8 232.29,-357.2 359.88,-357.2 359.88,-398.8"/>
<text text-anchor="middle" x="296.08" y="-382.2" font-family="Times,serif" font-size="14.00">config.py</text>
<text text-anchor="middle" x="296.08" y="-365.4" font-family="Times,serif" font-size="14.00">(Configs from .env)</text>
</g>
<!-- main_py&#45;&gt;config_py -->
<g id="edge7" class="edge">
<title>main_py-&gt;config_py</title>
<path fill="none" stroke="black" d="M188.43,-378C199.15,-378 210.09,-378 220.68,-378"/>
<polygon fill="black" stroke="black" points="220.49,-381.5 230.49,-378 220.49,-374.5 220.49,-381.5"/>
</g>
<!-- mic -->
<g id="node9" class="node">
<title>mic</title>
<polygon fill="lightyellow" stroke="black" points="367.05,-127.8 225.11,-127.8 225.11,-86.2 367.05,-86.2 367.05,-127.8"/>
<text text-anchor="middle" x="296.08" y="-111.2" font-family="Times,serif" font-size="14.00">Wake Word Detection</text>
<text text-anchor="middle" x="296.08" y="-94.4" font-family="Times,serif" font-size="14.00">(pvporcupine)</text>
</g>
<!-- main_py&#45;&gt;mic -->
<g id="edge6" class="edge">
<title>main_py-&gt;mic</title>
<path fill="none" stroke="black" d="M184.57,-356.91C185.82,-355.68 187.01,-354.38 188.11,-353 217.51,-316.54 178.3,-180.68 206.11,-143 208.95,-139.15 212.27,-135.72 215.93,-132.65"/>
<polygon fill="black" stroke="black" points="217.7,-135.69 223.78,-127.01 213.62,-130 217.7,-135.69"/>
</g>
<!-- record_audio -->
<g id="node10" class="node">
<title>record_audio</title>
<polygon fill="lightyellow" stroke="black" points="657.4,-107.8 562.47,-107.8 562.47,-66.2 657.4,-66.2 657.4,-107.8"/>
<text text-anchor="middle" x="609.94" y="-91.2" font-family="Times,serif" font-size="14.00">Record Audio</text>
<text text-anchor="middle" x="609.94" y="-74.4" font-family="Times,serif" font-size="14.00">(on trigger)</text>
</g>
<!-- main_py&#45;&gt;record_audio -->
<g id="edge8" class="edge">
<title>main_py-&gt;record_audio</title>
<path fill="none" stroke="black" d="M181.01,-356.78C183.44,-355.58 185.82,-354.32 188.11,-353 291.39,-293.51 283.6,-233.55 385.05,-171 437.56,-138.63 504.54,-115.54 551.5,-101.86"/>
<polygon fill="black" stroke="black" points="552.28,-105.27 560.94,-99.16 550.36,-98.54 552.28,-105.27"/>
</g>
<!-- response_display -->
<g id="node23" class="node">
<title>response_display</title>
<polygon fill="lightyellow" stroke="black" points="2717.38,-87.8 2583.18,-87.8 2583.18,-46.2 2717.38,-46.2 2717.38,-87.8"/>
<text text-anchor="middle" x="2650.28" y="-71.2" font-family="Times,serif" font-size="14.00">Frontend Chat UI</text>
<text text-anchor="middle" x="2650.28" y="-54.4" font-family="Times,serif" font-size="14.00">(Text, Audio, Video)</text>
</g>
<!-- main_py&#45;&gt;response_display -->
<g id="edge9" class="edge">
<title>main_py-&gt;response_display</title>
<path fill="none" stroke="black" d="M184.58,-356.91C185.82,-355.68 187.01,-354.38 188.11,-353 218.04,-315.82 199.94,-186.32 206.11,-139 209.74,-111.25 204.1,-101.78 217.11,-77 239.76,-33.88 246.38,0 295.08,0 295.08,0 295.08,0 2496.04,0 2537.78,0 2580.96,-21.13 2610.8,-39.65"/>
<polygon fill="black" stroke="black" points="2608.81,-42.53 2619.12,-44.98 2612.59,-36.64 2608.81,-42.53"/>
</g>
<!-- config_py&#45;&gt;env -->
<g id="edge10" class="edge">
<title>config_py-&gt;env</title>
<path fill="none" stroke="black" d="M360.19,-378C408.28,-378 474.88,-378 527.07,-378"/>
<polygon fill="black" stroke="black" points="526.79,-381.5 536.79,-378 526.79,-374.5 526.79,-381.5"/>
</g>
<!-- chat_kv -->
<g id="node8" class="node">
<title>chat_kv</title>
<polygon fill="white" stroke="black" points="162.65,-458.8 49.46,-458.8 49.46,-417.2 162.65,-417.2 162.65,-458.8"/>
<text text-anchor="middle" x="106.06" y="-442.2" font-family="Times,serif" font-size="14.00">chat.kv</text>
<text text-anchor="middle" x="106.06" y="-425.4" font-family="Times,serif" font-size="14.00">(Chat UI Layout)</text>
</g>
<!-- mic&#45;&gt;record_audio -->
<g id="edge11" class="edge">
<title>mic-&gt;record_audio</title>
<path fill="none" stroke="black" d="M367.46,-102.49C422.74,-98.94 498.8,-94.06 550.69,-90.74"/>
<polygon fill="black" stroke="black" points="550.77,-94.24 560.52,-90.1 550.32,-87.25 550.77,-94.24"/>
</g>
<!-- record_audio&#45;&gt;send_audio -->
<g id="edge12" class="edge">
<title>record_audio-&gt;send_audio</title>
<path fill="none" stroke="black" d="M657.69,-82.66C672.91,-81.25 690.11,-79.65 706.48,-78.13"/>
<polygon fill="black" stroke="black" points="706.5,-81.65 716.13,-77.24 705.85,-74.68 706.5,-81.65"/>
</g>
<!-- whisper -->
<g id="node12" class="node">
<title>whisper</title>
<polygon fill="lightyellow" stroke="black" points="977.62,-92.8 866,-92.8 866,-51.2 977.62,-51.2 977.62,-92.8"/>
<text text-anchor="middle" x="921.81" y="-76.2" font-family="Times,serif" font-size="14.00">Whisper API</text>
<text text-anchor="middle" x="921.81" y="-59.4" font-family="Times,serif" font-size="14.00">(Speech-to-Text)</text>
</g>
<!-- send_audio&#45;&gt;whisper -->
<g id="edge13" class="edge">
<title>send_audio-&gt;whisper</title>
<path fill="none" stroke="black" d="M829.44,-72C837.57,-72 846.03,-72 854.37,-72"/>
<polygon fill="black" stroke="black" points="854.12,-75.5 864.12,-72 854.12,-68.5 854.12,-75.5"/>
</g>
<!-- intent_model -->
<g id="node13" class="node">
<title>intent_model</title>
<polygon fill="lightyellow" stroke="black" points="1144.53,-92.8 1014.62,-92.8 1014.62,-51.2 1144.53,-51.2 1144.53,-92.8"/>
<text text-anchor="middle" x="1079.58" y="-76.2" font-family="Times,serif" font-size="14.00">GPT Model</text>
<text text-anchor="middle" x="1079.58" y="-59.4" font-family="Times,serif" font-size="14.00">(Intent Recognition)</text>
</g>
<!-- whisper&#45;&gt;intent_model -->
<g id="edge14" class="edge">
<title>whisper-&gt;intent_model</title>
<path fill="none" stroke="black" d="M977.73,-72C985.86,-72 994.35,-72 1002.81,-72"/>
<polygon fill="black" stroke="black" points="1002.78,-75.5 1012.78,-72 1002.78,-68.5 1002.78,-75.5"/>
</g>
<!-- decision -->
<g id="node14" class="node">
<title>decision</title>
<polygon fill="lightyellow" stroke="black" points="1310.67,-90 1181.53,-90 1181.53,-54 1310.67,-54 1310.67,-90"/>
<text text-anchor="middle" x="1246.1" y="-67.8" font-family="Times,serif" font-size="14.00">Intent Classification</text>
</g>
<!-- intent_model&#45;&gt;decision -->
<g id="edge15" class="edge">
<title>intent_model-&gt;decision</title>
<path fill="none" stroke="black" d="M1144.66,-72C1152.91,-72 1161.42,-72 1169.82,-72"/>
<polygon fill="black" stroke="black" points="1169.68,-75.5 1179.68,-72 1169.68,-68.5 1169.68,-75.5"/>
</g>
<!-- record_intent -->
<g id="node15" class="node">
<title>record_intent</title>
<polygon fill="lightyellow" stroke="black" points="1444.15,-108 1347.67,-108 1347.67,-72 1444.15,-72 1444.15,-108"/>
<text text-anchor="middle" x="1395.91" y="-85.8" font-family="Times,serif" font-size="14.00">Intent: Record</text>
</g>
<!-- decision&#45;&gt;record_intent -->
<g id="edge16" class="edge">
<title>decision-&gt;record_intent</title>
<path fill="none" stroke="black" d="M1311.07,-79.79C1319.35,-80.8 1327.79,-81.83 1335.98,-82.82"/>
<polygon fill="black" stroke="black" points="1335.48,-86.29 1345.83,-84.02 1336.33,-79.34 1335.48,-86.29"/>
</g>
<!-- other_intent -->
<g id="node16" class="node">
<title>other_intent</title>
<polygon fill="lightyellow" stroke="black" points="1658.14,-82 1462.15,-82 1462.15,-46 1658.14,-46 1658.14,-82"/>
<text text-anchor="middle" x="1560.14" y="-59.8" font-family="Times,serif" font-size="14.00">Intent: General / Fallback / Tavi</text>
</g>
<!-- decision&#45;&gt;other_intent -->
<g id="edge17" class="edge">
<title>decision-&gt;other_intent</title>
<path fill="none" stroke="black" d="M1311.16,-65.41C1323.27,-64.4 1335.85,-63.53 1347.67,-63 1380.98,-61.51 1417.26,-61.21 1450.21,-61.43"/>
<polygon fill="black" stroke="black" points="1450.18,-64.93 1460.21,-61.52 1450.24,-57.93 1450.18,-64.93"/>
</g>
<!-- capture_video -->
<g id="node17" class="node">
<title>capture_video</title>
<polygon fill="lightyellow" stroke="black" points="1774.17,-108 1676.14,-108 1676.14,-72 1774.17,-72 1774.17,-108"/>
<text text-anchor="middle" x="1725.15" y="-85.8" font-family="Times,serif" font-size="14.00">Capture Video</text>
</g>
<!-- record_intent&#45;&gt;capture_video -->
<g id="edge18" class="edge">
<title>record_intent-&gt;capture_video</title>
<path fill="none" stroke="black" d="M1444.49,-90C1502.65,-90 1601.11,-90 1664.33,-90"/>
<polygon fill="black" stroke="black" points="1664.2,-93.5 1674.2,-90 1664.2,-86.5 1664.2,-93.5"/>
</g>
<!-- audio_feedback -->
<g id="node22" class="node">
<title>audio_feedback</title>
<polygon fill="lightyellow" stroke="black" points="2546.18,-87.8 2443.89,-87.8 2443.89,-46.2 2546.18,-46.2 2546.18,-87.8"/>
<text text-anchor="middle" x="2495.04" y="-71.2" font-family="Times,serif" font-size="14.00">Text-to-Speech</text>
<text text-anchor="middle" x="2495.04" y="-54.4" font-family="Times,serif" font-size="14.00">(pyttsx3)</text>
</g>
<!-- other_intent&#45;&gt;audio_feedback -->
<g id="edge24" class="edge">
<title>other_intent-&gt;audio_feedback</title>
<path fill="none" stroke="black" d="M1658.54,-53.65C1699.72,-50.1 1748.23,-47 1792.17,-47 1792.17,-47 1792.17,-47 2333.2,-47 2366.14,-47 2402.58,-51.18 2432.43,-55.72"/>
<polygon fill="black" stroke="black" points="2431.61,-59.13 2442.03,-57.23 2432.7,-52.22 2431.61,-59.13"/>
</g>
<!-- capture_video&#45;&gt;frame_extract -->
<g id="edge19" class="edge">
<title>capture_video-&gt;frame_extract</title>
<path fill="none" stroke="black" d="M1774.61,-95.85C1782.8,-96.84 1791.42,-97.88 1799.98,-98.91"/>
<polygon fill="black" stroke="black" points="1799.3,-102.36 1809.65,-100.08 1800.14,-95.41 1799.3,-102.36"/>
</g>
<!-- frame_extract&#45;&gt;caption -->
<g id="edge20" class="edge">
<title>frame_extract-&gt;caption</title>
<path fill="none" stroke="black" d="M1924.86,-107C1933,-107 1941.48,-107 1949.9,-107"/>
<polygon fill="black" stroke="black" points="1949.78,-110.5 1959.78,-107 1949.78,-103.5 1949.78,-110.5"/>
</g>
<!-- caption&#45;&gt;ocr -->
<g id="edge21" class="edge">
<title>caption-&gt;ocr</title>
<path fill="none" stroke="black" d="M2085.63,-107C2093.91,-107 2102.4,-107 2110.66,-107"/>
<polygon fill="black" stroke="black" points="2110.62,-110.5 2120.62,-107 2110.62,-103.5 2110.62,-110.5"/>
</g>
<!-- ocr&#45;&gt;summarization -->
<g id="edge22" class="edge">
<title>ocr-&gt;summarization</title>
<path fill="none" stroke="black" d="M2220.97,-107C2228.96,-107 2237.44,-107 2246.01,-107"/>
<polygon fill="black" stroke="black" points="2245.79,-110.5 2255.79,-107 2245.79,-103.5 2245.79,-110.5"/>
</g>
<!-- summarization&#45;&gt;audio_feedback -->
<g id="edge23" class="edge">
<title>summarization-&gt;audio_feedback</title>
<path fill="none" stroke="black" d="M2407.03,-88.64C2415.54,-86.52 2424.16,-84.38 2432.49,-82.31"/>
<polygon fill="black" stroke="black" points="2433.3,-85.71 2442.16,-79.9 2431.61,-78.92 2433.3,-85.71"/>
</g>
<!-- audio_feedback&#45;&gt;response_display -->
<g id="edge25" class="edge">
<title>audio_feedback-&gt;response_display</title>
<path fill="none" stroke="black" d="M2546.64,-67C2554.61,-67 2563.01,-67 2571.43,-67"/>
<polygon fill="black" stroke="black" points="2571.37,-70.5 2581.37,-67 2571.37,-63.5 2571.37,-70.5"/>
</g>
<!-- continuous_loop -->
<g id="node24" class="node">
<title>continuous_loop</title>
<polygon fill="lightyellow" stroke="black" points="2860.17,-116.8 2754.38,-116.8 2754.38,-75.2 2860.17,-75.2 2860.17,-116.8"/>
<text text-anchor="middle" x="2807.27" y="-100.2" font-family="Times,serif" font-size="14.00">Re-activate Mic</text>
<text text-anchor="middle" x="2807.27" y="-83.4" font-family="Times,serif" font-size="14.00">(Loop back)</text>
</g>
<!-- response_display&#45;&gt;continuous_loop -->
<g id="edge26" class="edge">
<title>response_display-&gt;continuous_loop</title>
<path fill="none" stroke="black" d="M2717.46,-79.38C2725.83,-80.95 2734.38,-82.55 2742.71,-84.11"/>
<polygon fill="black" stroke="black" points="2741.94,-87.52 2752.41,-85.92 2743.22,-80.64 2741.94,-87.52"/>
</g>
<!-- continuous_loop&#45;&gt;mic -->
<g id="edge27" class="edge">
<title>continuous_loop-&gt;mic</title>
<path fill="none" stroke="black" d="M2754.1,-96.68C2742.04,-96.82 2729.26,-96.93 2717.38,-97 2595.83,-97.68 2561.73,-126.81 2443.89,-97 2425.76,-92.42 2424.86,-82.12 2406.89,-77 2335.22,-56.58 2314.04,-67 2239.52,-67 1942.75,-67 1942.75,-67 1942.75,-67 1884.1,-67 1863.97,-51.49 1811.17,-77 1789.36,-87.54 1796.12,-106.78 1774.17,-117 1688.24,-157 1655.93,-127 1561.14,-127 608.94,-127 608.94,-127 608.94,-127 530.67,-127 441.57,-120.65 378.71,-115.1"/>
<polygon fill="black" stroke="black" points="379.07,-111.62 368.8,-114.21 378.44,-118.59 379.07,-111.62"/>
</g>
</g>
</svg>